<?xml version="1.0" standalone="no"?>
<svg xmlns="http://www.w3.org/2000/svg" version="1.1" viewBox="0 0 580 580">
	<!-- Created with https://api.qrserver.com (QR Code API, see goQR.me/api for information) -->
	<title>QR Code</title>
	<desc>https://taller.rossi-ia.com/bbva</desc>
	<rect style="fill:rgb(251, 250, 247);fill-opacity:1" x="0" y="0" width="580" height="580" />
	<g id="elements">
		<path style="fill:rgb(23, 24, 27)" d="M 0,0 l 20,0 0,20 -20,0 z M 20,0 l 20,0 0,20 -20,0 z M 40,0 l 20,0 0,20 -20,0 z M 60,0 l 20,0 0,20 -20,0 z M 80,0 l 20,0 0,20 -20,0 z M 100,0 l 20,0 0,20 -20,0 z M 120,0 l 20,0 0,20 -20,0 z M 200,0 l 20,0 0,20 -20,0 z M 220,0 l 20,0 0,20 -20,0 z M 240,0 l 20,0 0,20 -20,0 z M 260,0 l 20,0 0,20 -20,0 z M 280,0 l 20,0 0,20 -20,0 z M 300,0 l 20,0 0,20 -20,0 z M 360,0 l 20,0 0,20 -20,0 z M 380,0 l 20,0 0,20 -20,0 z M 400,0 l 20,0 0,20 -20,0 z M 440,0 l 20,0 0,20 -20,0 z M 460,0 l 20,0 0,20 -20,0 z M 480,0 l 20,0 0,20 -20,0 z M 500,0 l 20,0 0,20 -20,0 z M 520,0 l 20,0 0,20 -20,0 z M 540,0 l 20,0 0,20 -20,0 z M 560,0 l 20,0 0,20 -20,0 z M 0,20 l 20,0 0,20 -20,0 z M 120,20 l 20,0 0,20 -20,0 z M 180,20 l 20,0 0,20 -20,0 z M 200,20 l 20,0 0,20 -20,0 z M 260,20 l 20,0 0,20 -20,0 z M 280,20 l 20,0 0,20 -20,0 z M 300,20 l 20,0 0,20 -20,0 z M 320,20 l 20,0 0,20 -20,0 z M 360,20 l 20,0 0,20 -20,0 z M 400,20 l 20,0 0,20 -20,0 z M 440,20 l 20,0 0,20 -20,0 z M 560,20 l 20,0 0,20 -20,0 z M 0,40 l 20,0 0,20 -20,0 z M 40,40 l 20,0 0,20 -20,0 z M 60,40 l 20,0 0,20 -20,0 z M 80,40 l 20,0 0,20 -20,0 z M 120,40 l 20,0 0,20 -20,0 z M 160,40 l 20,0 0,20 -20,0 z M 200,40 l 20,0 0,20 -20,0 z M 220,40 l 20,0 0,20 -20,0 z M 240,40 l 20,0 0,20 -20,0 z M 260,40 l 20,0 0,20 -20,0 z M 300,40 l 20,0 0,20 -20,0 z M 440,40 l 20,0 0,20 -20,0 z M 480,40 l 20,0 0,20 -20,0 z M 500,40 l 20,0 0,20 -20,0 z M 520,40 l 20,0 0,20 -20,0 z M 560,40 l 20,0 0,20 -20,0 z M 0,60 l 20,0 0,20 -20,0 z M 40,60 l 20,0 0,20 -20,0 z M 60,60 l 20,0 0,20 -20,0 z M 80,60 l 20,0 0,20 -20,0 z M 120,60 l 20,0 0,20 -20,0 z M 160,60 l 20,0 0,20 -20,0 z M 180,60 l 20,0 0,20 -20,0 z M 200,60 l 20,0 0,20 -20,0 z M 240,60 l 20,0 0,20 -20,0 z M 280,60 l 20,0 0,20 -20,0 z M 300,60 l 20,0 0,20 -20,0 z M 340,60 l 20,0 0,20 -20,0 z M 360,60 l 20,0 0,20 -20,0 z M 380,60 l 20,0 0,20 -20,0 z M 440,60 l 20,0 0,20 -20,0 z M 480,60 l 20,0 0,20 -20,0 z M 500,60 l 20,0 0,20 -20,0 z M 520,60 l 20,0 0,20 -20,0 z M 560,60 l 20,0 0,20 -20,0 z M 0,80 l 20,0 0,20 -20,0 z M 40,80 l 20,0 0,20 -20,0 z M 60,80 l 20,0 0,20 -20,0 z M 80,80 l 20,0 0,20 -20,0 z M 120,80 l 20,0 0,20 -20,0 z M 160,80 l 20,0 0,20 -20,0 z M 220,80 l 20,0 0,20 -20,0 z M 240,80 l 20,0 0,20 -20,0 z M 300,80 l 20,0 0,20 -20,0 z M 320,80 l 20,0 0,20 -20,0 z M 340,80 l 20,0 0,20 -20,0 z M 360,80 l 20,0 0,20 -20,0 z M 380,80 l 20,0 0,20 -20,0 z M 400,80 l 20,0 0,20 -20,0 z M 440,80 l 20,0 0,20 -20,0 z M 480,80 l 20,0 0,20 -20,0 z M 500,80 l 20,0 0,20 -20,0 z M 520,80 l 20,0 0,20 -20,0 z M 560,80 l 20,0 0,20 -20,0 z M 0,100 l 20,0 0,20 -20,0 z M 120,100 l 20,0 0,20 -20,0 z M 160,100 l 20,0 0,20 -20,0 z M 200,100 l 20,0 0,20 -20,0 z M 240,100 l 20,0 0,20 -20,0 z M 340,100 l 20,0 0,20 -20,0 z M 400,100 l 20,0 0,20 -20,0 z M 440,100 l 20,0 0,20 -20,0 z M 560,100 l 20,0 0,20 -20,0 z M 0,120 l 20,0 0,20 -20,0 z M 20,120 l 20,0 0,20 -20,0 z M 40,120 l 20,0 0,20 -20,0 z M 60,120 l 20,0 0,20 -20,0 z M 80,120 l 20,0 0,20 -20,0 z M 100,120 l 20,0 0,20 -20,0 z M 120,120 l 20,0 0,20 -20,0 z M 160,120 l 20,0 0,20 -20,0 z M 200,120 l 20,0 0,20 -20,0 z M 240,120 l 20,0 0,20 -20,0 z M 280,120 l 20,0 0,20 -20,0 z M 320,120 l 20,0 0,20 -20,0 z M 360,120 l 20,0 0,20 -20,0 z M 400,120 l 20,0 0,20 -20,0 z M 440,120 l 20,0 0,20 -20,0 z M 460,120 l 20,0 0,20 -20,0 z M 480,120 l 20,0 0,20 -20,0 z M 500,120 l 20,0 0,20 -20,0 z M 520,120 l 20,0 0,20 -20,0 z M 540,120 l 20,0 0,20 -20,0 z M 560,120 l 20,0 0,20 -20,0 z M 160,140 l 20,0 0,20 -20,0 z M 180,140 l 20,0 0,20 -20,0 z M 200,140 l 20,0 0,20 -20,0 z M 220,140 l 20,0 0,20 -20,0 z M 240,140 l 20,0 0,20 -20,0 z M 280,140 l 20,0 0,20 -20,0 z M 320,140 l 20,0 0,20 -20,0 z M 360,140 l 20,0 0,20 -20,0 z M 400,140 l 20,0 0,20 -20,0 z M 0,160 l 20,0 0,20 -20,0 z M 40,160 l 20,0 0,20 -20,0 z M 60,160 l 20,0 0,20 -20,0 z M 80,160 l 20,0 0,20 -20,0 z M 100,160 l 20,0 0,20 -20,0 z M 120,160 l 20,0 0,20 -20,0 z M 180,160 l 20,0 0,20 -20,0 z M 200,160 l 20,0 0,20 -20,0 z M 220,160 l 20,0 0,20 -20,0 z M 240,160 l 20,0 0,20 -20,0 z M 320,160 l 20,0 0,20 -20,0 z M 340,160 l 20,0 0,20 -20,0 z M 380,160 l 20,0 0,20 -20,0 z M 440,160 l 20,0 0,20 -20,0 z M 460,160 l 20,0 0,20 -20,0 z M 480,160 l 20,0 0,20 -20,0 z M 500,160 l 20,0 0,20 -20,0 z M 520,160 l 20,0 0,20 -20,0 z M 0,180 l 20,0 0,20 -20,0 z M 40,180 l 20,0 0,20 -20,0 z M 80,180 l 20,0 0,20 -20,0 z M 100,180 l 20,0 0,20 -20,0 z M 180,180 l 20,0 0,20 -20,0 z M 200,180 l 20,0 0,20 -20,0 z M 220,180 l 20,0 0,20 -20,0 z M 240,180 l 20,0 0,20 -20,0 z M 260,180 l 20,0 0,20 -20,0 z M 280,180 l 20,0 0,20 -20,0 z M 300,180 l 20,0 0,20 -20,0 z M 360,180 l 20,0 0,20 -20,0 z M 380,180 l 20,0 0,20 -20,0 z M 420,180 l 20,0 0,20 -20,0 z M 440,180 l 20,0 0,20 -20,0 z M 460,180 l 20,0 0,20 -20,0 z M 480,180 l 20,0 0,20 -20,0 z M 560,180 l 20,0 0,20 -20,0 z M 0,200 l 20,0 0,20 -20,0 z M 100,200 l 20,0 0,20 -20,0 z M 120,200 l 20,0 0,20 -20,0 z M 180,200 l 20,0 0,20 -20,0 z M 200,200 l 20,0 0,20 -20,0 z M 220,200 l 20,0 0,20 -20,0 z M 240,200 l 20,0 0,20 -20,0 z M 260,200 l 20,0 0,20 -20,0 z M 280,200 l 20,0 0,20 -20,0 z M 300,200 l 20,0 0,20 -20,0 z M 320,200 l 20,0 0,20 -20,0 z M 340,200 l 20,0 0,20 -20,0 z M 360,200 l 20,0 0,20 -20,0 z M 400,200 l 20,0 0,20 -20,0 z M 480,200 l 20,0 0,20 -20,0 z M 0,220 l 20,0 0,20 -20,0 z M 60,220 l 20,0 0,20 -20,0 z M 160,220 l 20,0 0,20 -20,0 z M 200,220 l 20,0 0,20 -20,0 z M 220,220 l 20,0 0,20 -20,0 z M 240,220 l 20,0 0,20 -20,0 z M 260,220 l 20,0 0,20 -20,0 z M 300,220 l 20,0 0,20 -20,0 z M 460,220 l 20,0 0,20 -20,0 z M 500,220 l 20,0 0,20 -20,0 z M 540,220 l 20,0 0,20 -20,0 z M 40,240 l 20,0 0,20 -20,0 z M 100,240 l 20,0 0,20 -20,0 z M 120,240 l 20,0 0,20 -20,0 z M 160,240 l 20,0 0,20 -20,0 z M 280,240 l 20,0 0,20 -20,0 z M 300,240 l 20,0 0,20 -20,0 z M 340,240 l 20,0 0,20 -20,0 z M 380,240 l 20,0 0,20 -20,0 z M 500,240 l 20,0 0,20 -20,0 z M 520,240 l 20,0 0,20 -20,0 z M 0,260 l 20,0 0,20 -20,0 z M 80,260 l 20,0 0,20 -20,0 z M 100,260 l 20,0 0,20 -20,0 z M 160,260 l 20,0 0,20 -20,0 z M 240,260 l 20,0 0,20 -20,0 z M 300,260 l 20,0 0,20 -20,0 z M 320,260 l 20,0 0,20 -20,0 z M 340,260 l 20,0 0,20 -20,0 z M 360,260 l 20,0 0,20 -20,0 z M 380,260 l 20,0 0,20 -20,0 z M 400,260 l 20,0 0,20 -20,0 z M 440,260 l 20,0 0,20 -20,0 z M 460,260 l 20,0 0,20 -20,0 z M 480,260 l 20,0 0,20 -20,0 z M 560,260 l 20,0 0,20 -20,0 z M 0,280 l 20,0 0,20 -20,0 z M 20,280 l 20,0 0,20 -20,0 z M 40,280 l 20,0 0,20 -20,0 z M 60,280 l 20,0 0,20 -20,0 z M 100,280 l 20,0 0,20 -20,0 z M 120,280 l 20,0 0,20 -20,0 z M 160,280 l 20,0 0,20 -20,0 z M 200,280 l 20,0 0,20 -20,0 z M 340,280 l 20,0 0,20 -20,0 z M 400,280 l 20,0 0,20 -20,0 z M 420,280 l 20,0 0,20 -20,0 z M 480,280 l 20,0 0,20 -20,0 z M 500,280 l 20,0 0,20 -20,0 z M 520,280 l 20,0 0,20 -20,0 z M 40,300 l 20,0 0,20 -20,0 z M 60,300 l 20,0 0,20 -20,0 z M 80,300 l 20,0 0,20 -20,0 z M 180,300 l 20,0 0,20 -20,0 z M 200,300 l 20,0 0,20 -20,0 z M 220,300 l 20,0 0,20 -20,0 z M 280,300 l 20,0 0,20 -20,0 z M 320,300 l 20,0 0,20 -20,0 z M 380,300 l 20,0 0,20 -20,0 z M 420,300 l 20,0 0,20 -20,0 z M 440,300 l 20,0 0,20 -20,0 z M 460,300 l 20,0 0,20 -20,0 z M 540,300 l 20,0 0,20 -20,0 z M 0,320 l 20,0 0,20 -20,0 z M 20,320 l 20,0 0,20 -20,0 z M 40,320 l 20,0 0,20 -20,0 z M 60,320 l 20,0 0,20 -20,0 z M 80,320 l 20,0 0,20 -20,0 z M 100,320 l 20,0 0,20 -20,0 z M 120,320 l 20,0 0,20 -20,0 z M 240,320 l 20,0 0,20 -20,0 z M 340,320 l 20,0 0,20 -20,0 z M 400,320 l 20,0 0,20 -20,0 z M 420,320 l 20,0 0,20 -20,0 z M 500,320 l 20,0 0,20 -20,0 z M 520,320 l 20,0 0,20 -20,0 z M 0,340 l 20,0 0,20 -20,0 z M 40,340 l 20,0 0,20 -20,0 z M 60,340 l 20,0 0,20 -20,0 z M 140,340 l 20,0 0,20 -20,0 z M 160,340 l 20,0 0,20 -20,0 z M 180,340 l 20,0 0,20 -20,0 z M 220,340 l 20,0 0,20 -20,0 z M 240,340 l 20,0 0,20 -20,0 z M 260,340 l 20,0 0,20 -20,0 z M 280,340 l 20,0 0,20 -20,0 z M 300,340 l 20,0 0,20 -20,0 z M 340,340 l 20,0 0,20 -20,0 z M 360,340 l 20,0 0,20 -20,0 z M 380,340 l 20,0 0,20 -20,0 z M 400,340 l 20,0 0,20 -20,0 z M 420,340 l 20,0 0,20 -20,0 z M 440,340 l 20,0 0,20 -20,0 z M 460,340 l 20,0 0,20 -20,0 z M 480,340 l 20,0 0,20 -20,0 z M 520,340 l 20,0 0,20 -20,0 z M 560,340 l 20,0 0,20 -20,0 z M 0,360 l 20,0 0,20 -20,0 z M 100,360 l 20,0 0,20 -20,0 z M 120,360 l 20,0 0,20 -20,0 z M 200,360 l 20,0 0,20 -20,0 z M 260,360 l 20,0 0,20 -20,0 z M 280,360 l 20,0 0,20 -20,0 z M 300,360 l 20,0 0,20 -20,0 z M 320,360 l 20,0 0,20 -20,0 z M 400,360 l 20,0 0,20 -20,0 z M 440,360 l 20,0 0,20 -20,0 z M 460,360 l 20,0 0,20 -20,0 z M 480,360 l 20,0 0,20 -20,0 z M 520,360 l 20,0 0,20 -20,0 z M 0,380 l 20,0 0,20 -20,0 z M 40,380 l 20,0 0,20 -20,0 z M 60,380 l 20,0 0,20 -20,0 z M 100,380 l 20,0 0,20 -20,0 z M 140,380 l 20,0 0,20 -20,0 z M 200,380 l 20,0 0,20 -20,0 z M 260,380 l 20,0 0,20 -20,0 z M 300,380 l 20,0 0,20 -20,0 z M 380,380 l 20,0 0,20 -20,0 z M 420,380 l 20,0 0,20 -20,0 z M 440,380 l 20,0 0,20 -20,0 z M 480,380 l 20,0 0,20 -20,0 z M 540,380 l 20,0 0,20 -20,0 z M 0,400 l 20,0 0,20 -20,0 z M 80,400 l 20,0 0,20 -20,0 z M 120,400 l 20,0 0,20 -20,0 z M 160,400 l 20,0 0,20 -20,0 z M 200,400 l 20,0 0,20 -20,0 z M 220,400 l 20,0 0,20 -20,0 z M 280,400 l 20,0 0,20 -20,0 z M 300,400 l 20,0 0,20 -20,0 z M 340,400 l 20,0 0,20 -20,0 z M 360,400 l 20,0 0,20 -20,0 z M 400,400 l 20,0 0,20 -20,0 z M 420,400 l 20,0 0,20 -20,0 z M 440,400 l 20,0 0,20 -20,0 z M 460,400 l 20,0 0,20 -20,0 z M 480,400 l 20,0 0,20 -20,0 z M 520,400 l 20,0 0,20 -20,0 z M 540,400 l 20,0 0,20 -20,0 z M 560,400 l 20,0 0,20 -20,0 z M 160,420 l 20,0 0,20 -20,0 z M 180,420 l 20,0 0,20 -20,0 z M 240,420 l 20,0 0,20 -20,0 z M 320,420 l 20,0 0,20 -20,0 z M 340,420 l 20,0 0,20 -20,0 z M 360,420 l 20,0 0,20 -20,0 z M 380,420 l 20,0 0,20 -20,0 z M 400,420 l 20,0 0,20 -20,0 z M 480,420 l 20,0 0,20 -20,0 z M 500,420 l 20,0 0,20 -20,0 z M 520,420 l 20,0 0,20 -20,0 z M 540,420 l 20,0 0,20 -20,0 z M 560,420 l 20,0 0,20 -20,0 z M 0,440 l 20,0 0,20 -20,0 z M 20,440 l 20,0 0,20 -20,0 z M 40,440 l 20,0 0,20 -20,0 z M 60,440 l 20,0 0,20 -20,0 z M 80,440 l 20,0 0,20 -20,0 z M 100,440 l 20,0 0,20 -20,0 z M 120,440 l 20,0 0,20 -20,0 z M 180,440 l 20,0 0,20 -20,0 z M 300,440 l 20,0 0,20 -20,0 z M 340,440 l 20,0 0,20 -20,0 z M 380,440 l 20,0 0,20 -20,0 z M 400,440 l 20,0 0,20 -20,0 z M 440,440 l 20,0 0,20 -20,0 z M 480,440 l 20,0 0,20 -20,0 z M 500,440 l 20,0 0,20 -20,0 z M 520,440 l 20,0 0,20 -20,0 z M 0,460 l 20,0 0,20 -20,0 z M 120,460 l 20,0 0,20 -20,0 z M 160,460 l 20,0 0,20 -20,0 z M 200,460 l 20,0 0,20 -20,0 z M 220,460 l 20,0 0,20 -20,0 z M 280,460 l 20,0 0,20 -20,0 z M 320,460 l 20,0 0,20 -20,0 z M 380,460 l 20,0 0,20 -20,0 z M 400,460 l 20,0 0,20 -20,0 z M 480,460 l 20,0 0,20 -20,0 z M 540,460 l 20,0 0,20 -20,0 z M 0,480 l 20,0 0,20 -20,0 z M 40,480 l 20,0 0,20 -20,0 z M 60,480 l 20,0 0,20 -20,0 z M 80,480 l 20,0 0,20 -20,0 z M 120,480 l 20,0 0,20 -20,0 z M 160,480 l 20,0 0,20 -20,0 z M 240,480 l 20,0 0,20 -20,0 z M 300,480 l 20,0 0,20 -20,0 z M 320,480 l 20,0 0,20 -20,0 z M 340,480 l 20,0 0,20 -20,0 z M 400,480 l 20,0 0,20 -20,0 z M 420,480 l 20,0 0,20 -20,0 z M 440,480 l 20,0 0,20 -20,0 z M 460,480 l 20,0 0,20 -20,0 z M 480,480 l 20,0 0,20 -20,0 z M 520,480 l 20,0 0,20 -20,0 z M 540,480 l 20,0 0,20 -20,0 z M 0,500 l 20,0 0,20 -20,0 z M 40,500 l 20,0 0,20 -20,0 z M 60,500 l 20,0 0,20 -20,0 z M 80,500 l 20,0 0,20 -20,0 z M 120,500 l 20,0 0,20 -20,0 z M 160,500 l 20,0 0,20 -20,0 z M 220,500 l 20,0 0,20 -20,0 z M 240,500 l 20,0 0,20 -20,0 z M 260,500 l 20,0 0,20 -20,0 z M 280,500 l 20,0 0,20 -20,0 z M 320,500 l 20,0 0,20 -20,0 z M 360,500 l 20,0 0,20 -20,0 z M 380,500 l 20,0 0,20 -20,0 z M 400,500 l 20,0 0,20 -20,0 z M 500,500 l 20,0 0,20 -20,0 z M 520,500 l 20,0 0,20 -20,0 z M 540,500 l 20,0 0,20 -20,0 z M 560,500 l 20,0 0,20 -20,0 z M 0,520 l 20,0 0,20 -20,0 z M 40,520 l 20,0 0,20 -20,0 z M 60,520 l 20,0 0,20 -20,0 z M 80,520 l 20,0 0,20 -20,0 z M 120,520 l 20,0 0,20 -20,0 z M 160,520 l 20,0 0,20 -20,0 z M 180,520 l 20,0 0,20 -20,0 z M 240,520 l 20,0 0,20 -20,0 z M 260,520 l 20,0 0,20 -20,0 z M 300,520 l 20,0 0,20 -20,0 z M 340,520 l 20,0 0,20 -20,0 z M 360,520 l 20,0 0,20 -20,0 z M 380,520 l 20,0 0,20 -20,0 z M 400,520 l 20,0 0,20 -20,0 z M 440,520 l 20,0 0,20 -20,0 z M 460,520 l 20,0 0,20 -20,0 z M 480,520 l 20,0 0,20 -20,0 z M 500,520 l 20,0 0,20 -20,0 z M 520,520 l 20,0 0,20 -20,0 z M 540,520 l 20,0 0,20 -20,0 z M 0,540 l 20,0 0,20 -20,0 z M 120,540 l 20,0 0,20 -20,0 z M 200,540 l 20,0 0,20 -20,0 z M 280,540 l 20,0 0,20 -20,0 z M 360,540 l 20,0 0,20 -20,0 z M 400,540 l 20,0 0,20 -20,0 z M 420,540 l 20,0 0,20 -20,0 z M 480,540 l 20,0 0,20 -20,0 z M 500,540 l 20,0 0,20 -20,0 z M 540,540 l 20,0 0,20 -20,0 z M 0,560 l 20,0 0,20 -20,0 z M 20,560 l 20,0 0,20 -20,0 z M 40,560 l 20,0 0,20 -20,0 z M 60,560 l 20,0 0,20 -20,0 z M 80,560 l 20,0 0,20 -20,0 z M 100,560 l 20,0 0,20 -20,0 z M 120,560 l 20,0 0,20 -20,0 z M 160,560 l 20,0 0,20 -20,0 z M 180,560 l 20,0 0,20 -20,0 z M 200,560 l 20,0 0,20 -20,0 z M 220,560 l 20,0 0,20 -20,0 z M 240,560 l 20,0 0,20 -20,0 z M 280,560 l 20,0 0,20 -20,0 z M 300,560 l 20,0 0,20 -20,0 z M 340,560 l 20,0 0,20 -20,0 z M 380,560 l 20,0 0,20 -20,0 z M 420,560 l 20,0 0,20 -20,0 z M 440,560 l 20,0 0,20 -20,0 z M 460,560 l 20,0 0,20 -20,0 z M 480,560 l 20,0 0,20 -20,0 z M 500,560 l 20,0 0,20 -20,0 z M 520,560 l 20,0 0,20 -20,0 z " />
	</g>
</svg>
